<svg xmlns="http://www.w3.org/2000/svg" width="1600" height="900" viewBox="0 0 1600 900">
<defs>
<linearGradient id="bg" x1="0" y1="0" x2="1" y2="1"><stop stop-color="#050914"/><stop offset="1" stop-color="#111B38"/></linearGradient>
<linearGradient id="ring" x1="0" y1="0" x2="1" y2="1"><stop stop-color="#20E4FF"/><stop offset=".5" stop-color="#4C7BFF"/><stop offset="1" stop-color="#A25BFF"/></linearGradient>
<style>.h{font:800 40px Inter,Segoe UI,Arial;fill:#F3F8FF}.t{font:700 22px Inter,Segoe UI,Arial;fill:#F4F8FF}.s{font:500 16px Inter,Segoe UI,Arial;fill:#A7B7D2}.n{font:900 20px Inter,Segoe UI,Arial;fill:#06101D}</style>
</defs>
<rect width="1600" height="900" rx="38" fill="url(#bg)"/>
<text x="800" y="66" text-anchor="middle" class="h">Autonomous Self-Healing Control Loop</text>
<text x="800" y="104" text-anchor="middle" class="s" font-size="18">Every recovery is evidence-driven, policy-bounded and validated before it becomes trusted memory</text>
<circle cx="800" cy="470" r="260" fill="none" stroke="#172A52" stroke-width="28"/>
<circle cx="800" cy="470" r="260" fill="none" stroke="url(#ring)" stroke-width="4" stroke-dasharray="8 12" opacity=".9"/>
<!-- arrows around ring -->
<g fill="none" stroke="#537FFF" stroke-width="4" stroke-linecap="round"><path d="M800 210c170 0 300 120 320 270"/><path d="M1120 470c0 170-120 300-270 320"/><path d="M800 730c-170 0-300-120-320-270"/><path d="M480 470c0-170 120-300 270-320"/></g>
<!-- center -->
<circle cx="800" cy="470" r="140" fill="#0B1730" stroke="url(#ring)" stroke-width="6"/>
<text x="800" y="445" text-anchor="middle" class="h" font-size="50">RPA-X</text>
<text x="800" y="482" text-anchor="middle" class="s" font-size="17">RECOVERY BRAIN</text>
<text x="800" y="520" text-anchor="middle" class="t" font-size="18">Safe autonomy, not blind retries</text>
<!-- nodes -->
<g>
<rect x="660" y="130" width="280" height="105" rx="24" fill="#0E1B36" stroke="#2B6D9C"/><circle cx="704" cy="170" r="18" fill="#26E3FF"/><text x="704" y="177" text-anchor="middle" class="n">1</text><text x="740" y="169" class="t">Observe</text><text x="740" y="198" class="s">Events · health · queues · SLAs</text>
<rect x="1050" y="225" width="330" height="110" rx="24" fill="#0E1B36" stroke="#355996"/><circle cx="1096" cy="267" r="18" fill="#4F9BFF"/><text x="1096" y="274" text-anchor="middle" class="n">2</text><text x="1132" y="266" class="t">Understand</text><text x="1132" y="295" class="s">Twin + Genome + evidence</text><text x="1132" y="319" class="s">classify the failure</text>
<rect x="1130" y="470" width="350" height="112" rx="24" fill="#101A3A" stroke="#6156B4"/><circle cx="1176" cy="512" r="18" fill="#776CFF"/><text x="1176" y="519" text-anchor="middle" class="n">3</text><text x="1212" y="511" class="t">Decide</text><text x="1212" y="540" class="s">Confidence + risk + policy</text><text x="1212" y="564" class="s">allow · approve · deny</text>
<rect x="1020" y="690" width="340" height="112" rx="24" fill="#11183A" stroke="#8A54B8"/><circle cx="1066" cy="732" r="18" fill="#A260FF"/><text x="1066" y="739" text-anchor="middle" class="n">4</text><text x="1102" y="731" class="t">Heal</text><text x="1102" y="760" class="s">Shadow test · execute recovery</text><text x="1102" y="784" class="s">retry · resume · requeue · fallback</text>
<rect x="240" y="690" width="340" height="112" rx="24" fill="#0D1E35" stroke="#2B8A77"/><circle cx="286" cy="732" r="18" fill="#4EE6A8"/><text x="286" y="739" text-anchor="middle" class="n">5</text><text x="322" y="731" class="t">Validate</text><text x="322" y="760" class="s">Technical + business outcome</text><text x="322" y="784" class="s">success · rollback · escalate</text>
<rect x="120" y="470" width="350" height="112" rx="24" fill="#0D1E35" stroke="#2C7D8A"/><circle cx="166" cy="512" r="18" fill="#4DD8D4"/><text x="166" y="519" text-anchor="middle" class="n">6</text><text x="202" y="511" class="t">Record Evidence</text><text x="202" y="540" class="s">Decision · policy · result · audit</text><text x="202" y="564" class="s">complete recovery timeline</text>
<rect x="220" y="225" width="330" height="110" rx="24" fill="#0D1A36" stroke="#3166A0"/><circle cx="266" cy="267" r="18" fill="#48BAFF"/><text x="266" y="274" text-anchor="middle" class="n">7</text><text x="302" y="266" class="t">Learn</text><text x="302" y="295" class="s">Validated recovery memory</text><text x="302" y="319" class="s">repeat-pattern intelligence</text>
</g>
<rect x="615" y="818" width="370" height="46" rx="16" fill="#09162B" stroke="#304F83"/><text x="800" y="848" text-anchor="middle" class="s">Guardrail: AI recommends → policy authorizes → outcome proves</text>
</svg>