<svg width="1180" height="280" viewBox="0 0 1180 280" fill="none" xmlns="http://www.w3.org/2000/svg">
  <defs>
    <linearGradient id="mark" x1="34" y1="28" x2="244" y2="250" gradientUnits="userSpaceOnUse">
      <stop stop-color="#43E7FF"/>
      <stop offset="0.52" stop-color="#4C8DFF"/>
      <stop offset="1" stop-color="#8E62FF"/>
    </linearGradient>
    <linearGradient id="bg" x1="0" y1="0" x2="280" y2="280" gradientUnits="userSpaceOnUse">
      <stop stop-color="#071426"/>
      <stop offset="1" stop-color="#111B3D"/>
    </linearGradient>
    <linearGradient id="panel" x1="0" y1="0" x2="1180" y2="280" gradientUnits="userSpaceOnUse">
      <stop stop-color="#F8FBFF"/>
      <stop offset="1" stop-color="#EEF4FF"/>
    </linearGradient>
  </defs>
  <rect x="1" y="1" width="1178" height="278" rx="30" fill="url(#panel)" stroke="#DCE7F5" stroke-width="2"/>
  <rect x="10" y="10" width="260" height="260" rx="68" fill="url(#bg)"/>
  <rect x="20" y="20" width="240" height="240" rx="60" stroke="url(#mark)" stroke-width="2" opacity="0.75"/>
  <path d="M140 48L218 93V183L140 228L62 183V93L140 48Z" stroke="url(#mark)" stroke-width="11" stroke-linejoin="round"/>
  <path d="M99 95L181 185M181 95L99 185" stroke="url(#mark)" stroke-width="19" stroke-linecap="round"/>
  <circle cx="140" cy="48" r="8" fill="#43E7FF"/>
  <circle cx="218" cy="93" r="8" fill="#4C8DFF"/>
  <circle cx="218" cy="183" r="8" fill="#8E62FF"/>
  <circle cx="140" cy="228" r="8" fill="#43E7FF"/>
  <circle cx="62" cy="183" r="8" fill="#4C8DFF"/>
  <circle cx="62" cy="93" r="8" fill="#8E62FF"/>
  <text x="315" y="125" fill="#0B1730" font-size="86" font-family="Inter,Segoe UI,Arial,sans-serif" font-weight="800" letter-spacing="2">RPA-X</text>
  <text x="320" y="178" fill="#334A68" font-size="27" font-family="Inter,Segoe UI,Arial,sans-serif" font-weight="600" letter-spacing="4">AUTONOMOUS AUTOMATION CONTROL PLANE</text>
  <text x="320" y="220" fill="#60728B" font-size="22" font-family="Inter,Segoe UI,Arial,sans-serif" font-weight="500">Observe · Reason · Heal · Govern · Learn</text>
</svg>
